<svg width="50" height="50" viewBox="0 0 50 50" fill="none" xmlns="http://www.w3.org/2000/svg">
<g clip-path="url(#clip0_2_2)">
<rect width="50" height="50" fill="#5D2A42"/>
<path d="M30.724 45.324C28.012 45.324 25.72 44.808 23.848 43.776C22 42.744 20.596 41.256 19.636 39.312C18.676 37.368 18.196 35.04 18.196 32.328C18.196 30.312 18.46 28.5 18.988 26.892C19.54 25.284 20.332 23.928 21.364 22.824C22.42 21.696 23.692 20.832 25.18 20.232C26.692 19.608 28.396 19.296 30.292 19.296C31.804 19.296 33.268 19.512 34.684 19.944C36.1 20.352 37.36 21.012 38.464 21.924C38.752 22.14 38.932 22.38 39.004 22.644C39.076 22.908 39.064 23.172 38.968 23.436C38.896 23.7 38.764 23.928 38.572 24.12C38.404 24.288 38.176 24.384 37.888 24.408C37.624 24.432 37.348 24.348 37.06 24.156C36.076 23.388 35.032 22.836 33.928 22.5C32.824 22.14 31.6 21.96 30.256 21.96C28.336 21.96 26.704 22.368 25.36 23.184C24.04 24 23.032 25.176 22.336 26.712C21.664 28.248 21.328 30.12 21.328 32.328C21.328 35.688 22.108 38.256 23.668 40.032C25.252 41.808 27.628 42.696 30.796 42.696C31.948 42.696 33.076 42.588 34.18 42.372C35.284 42.132 36.328 41.808 37.312 41.4L36.664 43.092V34.128H31.516C31.084 34.128 30.76 34.02 30.544 33.804C30.328 33.588 30.22 33.3 30.22 32.94C30.22 32.556 30.328 32.268 30.544 32.076C30.76 31.884 31.084 31.788 31.516 31.788H37.96C38.368 31.788 38.68 31.896 38.896 32.112C39.112 32.328 39.22 32.64 39.22 33.048V42.444C39.22 42.804 39.16 43.104 39.04 43.344C38.92 43.584 38.716 43.764 38.428 43.884C37.42 44.292 36.208 44.64 34.792 44.928C33.4 45.192 32.044 45.324 30.724 45.324Z" fill="#FFB57D"/>
<path d="M20.34 32.324C19.212 32.324 18.108 32.228 17.028 32.036C15.948 31.844 14.94 31.568 14.004 31.208C13.092 30.848 12.264 30.392 11.52 29.84C11.232 29.624 11.028 29.384 10.908 29.12C10.812 28.832 10.788 28.556 10.836 28.292C10.908 28.004 11.028 27.764 11.196 27.572C11.388 27.38 11.616 27.272 11.88 27.248C12.144 27.224 12.432 27.308 12.744 27.5C13.824 28.268 14.976 28.832 16.2 29.192C17.424 29.528 18.804 29.696 20.34 29.696C22.5 29.696 24.096 29.3 25.128 28.508C26.184 27.692 26.712 26.624 26.712 25.304C26.712 24.224 26.328 23.384 25.56 22.784C24.816 22.16 23.556 21.668 21.78 21.308L18.036 20.552C15.78 20.072 14.088 19.292 12.96 18.212C11.856 17.108 11.304 15.644 11.304 13.82C11.304 12.692 11.532 11.672 11.988 10.76C12.444 9.824 13.08 9.032 13.896 8.384C14.712 7.712 15.684 7.196 16.812 6.836C17.94 6.476 19.188 6.296 20.556 6.296C22.068 6.296 23.472 6.512 24.768 6.944C26.088 7.352 27.276 7.976 28.332 8.816C28.596 9.032 28.776 9.284 28.872 9.572C28.968 9.836 28.98 10.1 28.908 10.364C28.836 10.604 28.704 10.808 28.512 10.976C28.344 11.144 28.116 11.24 27.828 11.264C27.564 11.288 27.264 11.192 26.928 10.976C25.968 10.256 24.972 9.74 23.94 9.428C22.908 9.092 21.768 8.924 20.52 8.924C19.248 8.924 18.144 9.116 17.208 9.5C16.296 9.884 15.576 10.448 15.048 11.192C14.544 11.912 14.292 12.752 14.292 13.712C14.292 14.864 14.64 15.776 15.336 16.448C16.056 17.12 17.22 17.612 18.828 17.924L22.572 18.716C24.996 19.22 26.784 19.988 27.936 21.02C29.112 22.028 29.7 23.408 29.7 25.16C29.7 26.216 29.484 27.188 29.052 28.076C28.62 28.964 27.996 29.732 27.18 30.38C26.364 31.004 25.38 31.484 24.228 31.82C23.076 32.156 21.78 32.324 20.34 32.324Z" fill="#FFB57D"/>
</g>
<defs>
<clipPath id="clip0_2_2">
<rect width="50" height="50" fill="white"/>
</clipPath>
</defs>
</svg>
